<?xml version="1.0" encoding="utf-8"?>
<!-- Generator: Adobe Illustrator 25.0.1, SVG Export Plug-In . SVG Version: 6.00 Build 0)  -->
<svg version="1.1" id="Layer_1" xmlns="http://www.w3.org/2000/svg" xmlns:xlink="http://www.w3.org/1999/xlink" x="0px" y="0px"
	 viewBox="0 0 206.7 73.8" style="enable-background:new 0 0 206.7 73.8;" xml:space="preserve">
<style type="text/css">
	.st0{fill:#000001;}
</style>
<g id="a">
</g>
<g id="b">
	<g id="c">
		<g>
			<path class="st0" d="M61.4,3.6C43.4,8.2,46.3,32.3,31.5,40C14.8,46.1,7.4,30,1.9,34.2c-6.2,6.6,4.6,18.2,9.1,23.3
				c8.3,8.7,20.2,13,31.8,15.4c21.8,3.7,50-3.2,57.1-26.7c3.3-11.4,0.8-24-4.3-34.4C87.7,1.9,72.9-0.4,61.4,3.6z"/>
			<path class="st0" d="M204.8,32.4c-2.6-2-5.7,0.6-10,3.3c-4.7,2.9-10.9,5.8-19.7,2.6c-14.8-7.7-11.8-31.7-29.9-36.4
				c-11.4-4-26.3-1.7-34.1,8.1c-5.1,10.4-7.6,23-4.3,34.4c5.9,19.6,26.5,27.7,45.8,27.7c3.9,0,7.7-0.3,11.3-0.9
				c11.5-2.3,23.5-6.7,31.8-15.4C200.3,50.6,211.1,39.1,204.8,32.4L204.8,32.4z"/>
		</g>
	</g>
</g>
</svg>
